# AST/ASF file generated using VICON BodyLanguage
# -----------------------------------------------
:version 1.10
:name VICON
:units
  mass 1.0
  length 0.45
  angle deg
:documentation
   .ast/.asf automatically generated from VICON data using
   VICON BodyBuilder and BodyLanguage model FoxedUp or BRILLIANT.MOD
:root
   order TX TY TZ RX RY RZ
   axis XYZ
   position 0 0 0  
   orientation 0 0 0 
:bonedata
  begin
     id 1 
     name lhipjoint
     direction 0.575328 -0.747301 0.332475 
     length 2.40933 
     axis 0 0 0  XYZ
  end
  begin
     id 2 
     name lfemur
     direction 0.34202 -0.939693 0  
     length 7.31453  
     axis 0 0 20  XYZ
    dof rx ry rz
    limits (-160.0 20.0)
           (-70.0 70.0)
           (-60.0 70.0)
  end
  begin
     id 3 
     name ltibia
     direction 0.34202 -0.939693 0   
     length 7.82185   
     axis 0 0 20   XYZ
    dof rx
    limits (-10.0 170.0)
  end
  begin
     id 4 
     name lfoot
     direction 0.0795993 -0.218697 0.972541   
     length 2.19173   
     axis -90 7.62852e-016 20   XYZ
    dof rx rz
    limits (-45.0 90.0)
           (-70.0 20.0)
  end
  begin
     id 5 
     name ltoes
     direction 1.53537e-011 -4.21894e-011 1   
     length 1.10023   
     axis -90 7.62852e-016 20   XYZ
    dof rx
    limits (-90.0 20.0)
  end
  begin
     id 6 
     name rhipjoint
     direction -0.513884 -0.783789 0.348708   
     length 2.29716  
     axis 0 0 0  XYZ 
  end
  begin
     id 7 
     name rfemur
     direction -0.34202 -0.939693 0   
     length 7.59573   
     axis 0 0 -20   XYZ
    dof rx ry rz
    limits (-160.0 20.0)
           (-70.0 70.0)
           (-70.0 60.0)
  end
  begin
     id 8 
     name rtibia
     direction -0.34202 -0.939693 0   
     length 7.66402   
     axis 0 0 -20   XYZ
    dof rx
    limits (-10.0 170.0)
 end
 begin
     id 9 
     name rfoot
     direction -0.137793 -0.378584 0.915253   
     length 2.27056  
     axis -90 -7.62852e-016 -20   XYZ
    dof rx rz
    limits (-45.0 90.0)
           (-20.0 70.0)
  end
  begin
     id 10 
     name rtoes
     direction -1.53493e-011 -4.22159e-011 1   
     length 1.11766   
     axis -90 -7.62852e-016 -20   XYZ
    dof rx
    limits (-90.0 20.0)
  end
  begin
     id 11 
     name lowerback
     direction -0.00732775 0.998356 -0.05685   
     length 2.16513   
     axis 0 0 0   XYZ
    dof rx ry rz
    limits (-20.0 45.0)
           (-30.0 30.0)
           (-30.0 30.0)
  end
  begin
     id 12 
     name upperback
     direction 0.0218081 0.999627 -0.0164647   
     length 2.16755   
     axis 0 0 0   XYZ
    dof rx ry rz
    limits (-20.0 45.0)
           (-30.0 30.0)
           (-30.0 30.0)
  end
  begin
     id 13 
     name thorax
     direction 0.02365 0.999661 0.0108914   
     length 2.16932   
     axis 0 0 0   XYZ
    dof rx ry rz
    limits (-20.0 45.0)
           (-30.0 30.0)
           (-30.0 30.0)
  end
  begin
     id 14 
     name lowerneck
     direction -0.0523929 0.978385 0.200044   
     length 1.63877   
     axis 0 0 0   XYZ
    dof rx ry rz
    limits (-20.0 45.0)
           (-30.0 30.0)
           (-30.0 30.0)
  end
  begin
     id 15 
     name upperneck
     direction 0.0448674 0.981321 -0.187074   
     length 1.69014   
     axis 0 0 0   XYZ
    dof rx ry rz
    limits (-20.0 45.0)
           (-30.0 30.0)
           (-30.0 30.0)
  end
  begin
     id 16
     name head
     direction 0.0199089 0.996118 -0.0857429  
     length 1.70094  
     axis 0 0 0   XYZ
    dof rx ry rz
    limits (-20.0 45.0)
           (-30.0 30.0)
           (-30.0 30.0)
  end
  begin
     id 17 
     name lclavicle
     direction 0.940366 0.30191 -0.156722  
     length 3.37521  
     axis 0 0 0   XYZ
    dof ry rz
    limits (-20.0 10.0)
           (0.0 20.0)
  end
  begin
     id 18 
     name lhumerus
     direction 1 -4.4897e-011 -1.7911e-027   
     length 5.25287   
     axis 180 -30 -90   XYZ
    dof rx ry rz
    limits (-60.0 90.0)
           (-90.0 90.0)
           (-90.0 90.0)
  end
  begin
     id 19
     name lradius
     direction 1 -4.48951e-011 1.04424e-027   
     length 3.51014   
     axis 180 -30 -90   XYZ
    dof rx
    limits (-10.0 170.0)
  end
  begin
     id 20
     name lwrist
     direction 1 -4.48997e-011 -9.5942e-028   
     length 1.75507   
     axis 8.48502e-016 90 90   XYZ
    dof ry
    limits (-180.0 0.0)
 end
  begin
     id 21 
     name lhand
     direction 1 -4.48831e-011 -1.90777e-027   
     length 0.706179   
     axis 1.22306e-015 90 90   XYZ
    dof rx rz
    limits (-90.0 90.0)
           (-45.0 45.0)
  end
  begin
     id 22 
     name lfingers
     direction 1 -4.49108e-011 -3.85244e-027   
     length 0.569339   
     axis 2.44611e-015 90 90   XYZ
    dof rx
    limits (0.0 90.0)
  end
  begin
     id 23
     name lthumb
     direction 0.707107 -6.34953e-011 0.707107   
     length 0.817461   
     axis -90 45 -1.62303e-014   XYZ
    dof rx rz
    limits (-45.0 45.0)
           (-45.0 45.0)
  end
  begin
     id 24 
     name rclavicle
     direction -0.905329 0.382405 -0.184787   
     length 3.30787  
     axis 0 0 0   XYZ 
    dof ry rz
    limits (-10.0 20.0)
           (-20.0 0.0)
  end
  begin
     id 25 
     name rhumerus
     direction -1 -4.48953e-011 -9.15316e-029  
     length 5.28721   
     axis 180 30 90   XYZ
    dof rx ry rz
    limits (-90.0 60.0)
           (-90.0 90.0)
           (-90.0 90.0)
  end
  begin
     id 26 
     name rradius
     direction -1 -4.48987e-011 9.37824e-028   
     length 3.50544   
     axis 180 30 90   XYZ
    dof rx
    limits (-10.0 170.0)
  end
  begin
     id 27 
     name rwrist
     direction -1 -4.48967e-011 -9.58414e-028   
     length 1.75272   
     axis 8.48502e-016 -90 -90   XYZ
    dof ry
    limits (-180.0 0.0)
  end
  begin
     id 28
     name rhand
     direction -1 -4.48904e-011 -1.91266e-027   
     length 0.884996   
     axis 1.22306e-015 -90 -90   XYZ
    dof rx rz
    limits (-90.0 90.0)
           (-45.0 45.0)
  end
  begin
     id 29
     name rfingers
     direction -1 -4.4909e-011 -3.85015e-027   
     length 0.713507   
     axis 2.44611e-015 -90 -90   XYZ
    dof rx
    limits (0.0 90.0)
  end
  begin
     id 30
     name rthumb
     direction -0.707107 -6.34853e-011 0.707107   
     length 1.02446   
     axis -90 -45 1.62303e-014   XYZ
    dof rx rz
    limits (-45.0 45.0)
           (-45.0 45.0)
  end
:hierarchy
  begin
    root lhipjoint rhipjoint lowerback
    lhipjoint lfemur
    lfemur ltibia
    ltibia lfoot
    lfoot ltoes
    rhipjoint rfemur
    rfemur rtibia
    rtibia rfoot
    rfoot rtoes
    lowerback upperback
    upperback thorax
    thorax lowerneck lclavicle rclavicle
    lowerneck upperneck
    upperneck head
    lclavicle lhumerus
    lhumerus lradius
    lradius lwrist
    lwrist lhand lthumb
    lhand lfingers
    rclavicle rhumerus
    rhumerus rradius
    rradius rwrist
    rwrist rhand rthumb
    rhand rfingers
  end

#!OML:ASF F:\twosubjects\two\Thursday\Session 1\justin.ASF
:FULLY-SPECIFIED
:DEGREES
80
root -8.8781 17.7136 9.53091 3.81404 -1.30034 -2.31534
lowerback 0.893231 -1.26795 3.07529
upperback -0.00143477 -1.63536 5.86381
thorax -0.416869 -0.822341 4.34213
lowerneck -21.3558 -0.437661 -6.85401
upperneck 29.7089 0.761927 3.40839
head 13.587 0.0215074 2.66232
rclavicle 8.05078e-015 -1.43125e-014
rhumerus -8.24662 24.298 -87.1748
rradius 85.0836
rwrist -9.76606
rhand -29.9775 22.713
rfingers 7.12502
rthumb -3.2957 -7.24131
lclavicle 8.05078e-015 -1.43125e-014
lhumerus -2.71032 -36.2786 101.374
lradius 77.741
lwrist 35.7938
lhand -2.48004 53.5221
lfingers 7.12502
lthumb 23.2129 -277.857
rfemur -4.00325 -1.30118 19.2038
rtibia 46.7627
rfoot -14.2525 -2.57626
rtoes -29.6932
lfemur -30.8732 2.52351 -17.415
ltibia 28.1314
lfoot -1.8881 -4.27129
ltoes -11.8531
81
root -8.83454 17.704 9.7181 3.1524 -0.926666 -1.79313
lowerback 1.28914 -1.29964 2.46499
upperback -0.0951851 -1.65403 5.7159
thorax -0.721849 -0.829488 4.54409
lowerneck -20.4938 -0.331978 -7.23072
upperneck 29.2027 0.919725 3.6063
head 13.1778 0.0870981 2.80732
rclavicle -1.43125e-014 -1.43125e-014
rhumerus -8.508 23.5324 -87.0294
rradius 85.9598
rwrist -7.84068
rhand -29.7233 21.9706
rfingers 7.12502
rthumb -3.05023 -7.98733
lclavicle -1.43125e-014 -1.43125e-014
lhumerus -2.66521 -36.3496 100.956
lradius 78.4599
lwrist 35.3402
lhand -1.99803 53.5702
lfingers 7.12502
lthumb 23.6753 -277.868
rfemur -4.49394 -1.75304 18.341
rtibia 49.4264
rfoot -11.2927 -1.78239
rtoes -29.0816
lfemur -29.9775 2.89614 -18.4257
ltibia 29.2629
lfoot -3.19096 -4.84827
ltoes -14.2129
82
root -8.7972 17.6998 9.8965 2.68149 -0.753824 -1.34107
lowerback 1.4059 -1.22053 1.84513
upperback -0.132084 -1.55078 5.54759
thorax -0.819759 -0.774913 4.72015
lowerneck -19.7803 -0.284272 -7.16368
upperneck 28.678 0.980584 3.37859
head 12.8113 0.102216 2.69334
rclavicle -2.08724e-014 -1.43125e-014
rhumerus -8.87856 22.7583 -86.9474
rradius 87.0155
rwrist -6.9779
rhand -29.5807 21.5568
rfingers 7.12502
rthumb -2.91253 -8.40301
lclavicle -2.08724e-014 -1.43125e-014
lhumerus -2.57449 -36.4693 100.469
lradius 79.216
lwrist 34.6588
lhand -0.500445 54.0416
lfingers 7.12502
lthumb 25.1109 -277.59
rfemur -5.3227 -1.77421 17.6477
rtibia 52.0091
rfoot -7.88343 -1.30209
rtoes -25.1454
lfemur -29.3904 3.23606 -19.2151
ltibia 30.4848
lfoot -4.72448 -5.33354
ltoes -16.2809
83
root -8.75155 17.6945 10.0732 2.51857 -0.849029 -0.253622
lowerback 1.15369 -1.03511 0.681645
upperback -0.163043 -1.33437 5.15696
thorax -0.707236 -0.662756 4.96127
lowerneck -19.6021 -0.313472 -6.76973
upperneck 28.4444 0.976486 2.79142
head 12.6888 0.0690808 2.39012
rclavicle 1.72943e-014 -2.38542e-014
rhumerus -9.11433 22.0452 -86.8463
rradius 87.9439
rwrist -6.73532
rhand -29.3435 21.0988
rfingers 7.12502
rthumb -2.68344 -8.86403
lclavicle 1.72943e-014 -2.38542e-014
lhumerus -2.41405 -36.6431 99.9239
lradius 79.9658
lwrist 34.029
lhand 0.56935 54.3587
lfingers 7.12502
lthumb 26.1356 -277.42
rfemur -6.68238 -1.59365 16.1158
rtibia 54.5473
rfoot -4.31609 -0.549582
rtoes -20.2094
lfemur -29.2575 3.73376 -20.7556
ltibia 31.8123
lfoot -6.59679 -5.64259
ltoes -18.4171
84
root -8.70808 17.6791 10.2475 1.97376 -0.015015 0.349174
lowerback 1.44347 -1.18878 0.0824763
upperback -0.143956 -1.54198 4.91474
thorax -0.824172 -0.763548 5.05814
lowerneck -19.7185 -0.331676 -6.54166
upperneck 28.3547 1.01988 2.3607
head 12.6808 0.0567869 2.19124
rclavicle -1.35174e-014 3.18055e-015
rhumerus -9.3038 21.367 -86.8077
rradius 88.7903
rwrist -6.40941
rhand -28.8193 20.072
rfingers 7.12502
rthumb -2.17721 -9.89664
lclavicle -1.35174e-014 3.18055e-015
lhumerus -2.24219 -36.7174 99.3175
lradius 80.8451
lwrist 34.5291
lhand -0.349897 54.7756
lfingers 7.12502
lthumb 25.2552 -276.876
rfemur -7.41572 -2.1481 15.2459
rtibia 56.8736
rfoot -1.06738 -0.0101274
rtoes -15.2398
lfemur -28.6465 3.54227 -21.6698
ltibia 32.9284
lfoot -8.18002 -5.81384
ltoes -19.564
85
root -8.67918 17.6608 10.4048 1.68206 -0.24633 0.161281
lowerback 1.68248 -1.00526 0.0783452
upperback -0.154415 -1.28954 4.89048
thorax -0.991619 -0.634766 5.03603
lowerneck -19.6852 -0.331918 -6.38859
upperneck 28.1488 1.0436 2.1105
head 12.5931 0.0549332 2.06833
rclavicle -1.41137e-014 -1.59028e-015
rhumerus -9.76297 20.7518 -86.9387
rradius 89.9904
rwrist -6.3024
rhand -28.2919 18.8111
rfingers 7.12502
rthumb -1.66787 -11.1621
lclavicle -1.41137e-014 -1.59028e-015
lhumerus -2.04525 -36.884 98.5697
lradius 81.7125
lwrist 35.1039
lhand 0.502256 55.3601
lfingers 7.12502
lthumb 26.0714 -276.409
rfemur -8.67761 -1.84934 15.3472
rtibia 59.1543
rfoot 1.99093 0.51021
rtoes -10.621
lfemur -28.0644 3.82277 -21.4615
ltibia 33.7532
lfoot -8.86437 -5.72336
ltoes -19.0422
86
root -8.63719 17.6462 10.575 0.707037 0.410367 0.417705
lowerback 2.27463 -1.10202 -0.10882
upperback 0.0459389 -1.41717 4.66303
thorax -1.10791 -0.698897 4.91827
lowerneck -19.1574 -0.385504 -6.33048
upperneck 27.6991 0.907053 2.09694
head 12.3117 0.00975015 2.01866
rclavicle 1.00386e-014 3.18055e-015
rhumerus -10.2055 20.2728 -87.0541
rradius 91.1679
rwrist -6.52522
rhand -28.0933 17.6496
rfingers 7.12502
rthumb -1.47607 -12.3251
lclavicle 1.00386e-014 3.18055e-015
lhumerus -1.90806 -37.395 97.8094
lradius 82.2734
lwrist 34.71
lhand 2.64224 55.0424
lfingers 7.12502
lthumb 28.1186 -277.046
rfemur -8.79688 -2.44887 14.8753
rtibia 61.2214
rfoot 4.58368 1.16088
rtoes -5.80295
lfemur -26.5421 3.43085 -21.799
ltibia 34.3286
lfoot -9.63724 -5.82819
ltoes -19.2722
87
root -8.59681 17.6399 10.7502 0.359716 0.427266 0.794806
lowerback 2.16962 -1.00613 -0.561883
upperback 0.20094 -1.3107 4.47806
thorax -0.892794 -0.64858 4.97439
lowerneck -18.6437 -0.32244 -6.24409
upperneck 27.0681 0.942582 2.04321
head 11.9568 0.0423055 1.97394
rclavicle -1.08338e-014 -1.59028e-014
rhumerus -10.2515 20.0486 -87.0425
rradius 91.9572
rwrist -6.81796
rhand -27.8618 16.5038
rfingers 7.12502
rthumb -1.25245 -13.4722
lclavicle -1.08338e-014 -1.59028e-014
lhumerus -1.72303 -37.6354 97.0826
lradius 82.7932
lwrist 34.4118
lhand 2.39328 54.1445
lfingers 7.12502
lthumb 27.8807 -277.905
rfemur -9.78299 -2.33452 14.3161
rtibia 63.2727
rfoot 6.88073 1.04285
rtoes 0.179345
lfemur -25.8658 3.72386 -22.4457
ltibia 34.7885
lfoot -10.641 -5.53425
ltoes -21.1694
88
root -8.56402 17.6338 10.9254 0.225614 0.234356 0.96405
lowerback 1.94864 -0.817235 -0.864385
upperback 0.15906 -1.06879 4.35908
thorax -0.830463 -0.526664 5.01203
lowerneck -17.9439 -0.306351 -6.05578
upperneck 26.5585 0.959954 1.67467
head 11.6225 0.0329772 1.79339
rclavicle -1.5704e-014 -5.40694e-014
rhumerus -10.8288 19.6947 -87.1597
rradius 92.8662
rwrist -7.1017
rhand -27.2196 15.5204
rfingers 7.12502
rthumb -0.632166 -14.4584
lclavicle -1.5704e-014 -5.40694e-014
lhumerus -1.83681 -37.7739 96.6057
lradius 83.4466
lwrist 34.4689
lhand 1.65138 53.834
lfingers 7.12502
lthumb 27.1711 -278.102
rfemur -11.0293 -1.97514 14.1596
rtibia 65.2316
rfoot 8.16242 -0.0454471
rtoes 2.1263
lfemur -25.3576 4.04218 -22.7852
ltibia 35.0277
lfoot -11.4005 -5.07929
ltoes -22.3262
89
root -8.52955 17.6307 11.0943 0.052434 0.294632 1.22096
lowerback 1.76792 -0.609128 -1.10924
upperback -0.030519 -0.793435 4.21912
thorax -0.94835 -0.383134 4.99766
lowerneck -17.2318 -0.485431 -6.47875
upperneck 26.6025 0.774817 1.70342
head 11.5066 -0.0897122 1.84426
rclavicle 8.00108e-015 9.54166e-015
rhumerus -11.8142 19.1161 -87.1334
rradius 93.7659
rwrist -7.37891
rhand -26.5322 15.2619
rfingers 7.12502
rthumb 0.0317054 -14.7178
lclavicle 8.00108e-015 9.54166e-015
lhumerus -2.28124 -38.272 96.575
lradius 84.0072
lwrist 34.4648
lhand 2.27601 53.6969
lfingers 7.12502
lthumb 27.7685 -278.334
rfemur -12.1203 -2.04865 13.9155
rtibia 67.1147
rfoot 8.20505 -1.15811
rtoes -4.61972
lfemur -24.4759 3.9251 -23.1236
ltibia 35.0806
lfoot -11.8694 -4.65318
ltoes -21.4654
90
root -8.48869 17.6338 11.2548 -0.107907 0.587026 1.71134
lowerback 1.42612 -0.723805 -1.67244
upperback 0.430756 -0.973612 3.95236
thorax -0.260384 -0.491067 5.03292
lowerneck -18.587 -0.313951 -6.60753
upperneck 27.1386 1.02894 2.19597
head 11.9665 0.0633341 2.10735
rclavicle -4.67144e-015 -3.33958e-014
rhumerus -11.0292 19.2574 -87.1699
rradius 94.0557
rwrist -7.5269
rhand -26.1921 15.6741
rfingers 7.12502
rthumb 0.36021 -14.3054
lclavicle -4.67144e-015 -3.33958e-014
lhumerus -1.21727 -38.1846 95.0925
lradius 84.4746
lwrist 34.4209
lhand 2.86034 53.4148
lfingers 7.12502
lthumb 28.3271 -278.708
rfemur -13.1928 -2.48217 13.3183
rtibia 68.9436
rfoot 7.35862 -2.2479
rtoes -4.52303
lfemur -23.5728 3.55347 -23.7676
ltibia 34.9877
lfoot -12.2026 -4.40387
ltoes -19.8947
91
root -8.45497 17.6382 11.4189 -0.433513 0.996246 1.9247
lowerback 1.37908 -0.727791 -1.88924
upperback 0.584535 -0.985929 3.75282
thorax -0.0745697 -0.502965 4.94576
lowerneck -18.6044 -0.191619 -6.94339
upperneck 27.2935 1.14492 2.76992
head 12.0147 0.153719 2.40207
rclavicle 9.44227e-016 -3.33958e-014
rhumerus -11.1413 19.1018 -87.2392
rradius 94.3644
rwrist -7.40964
rhand -26.2083 16.1242
rfingers 7.12502
rthumb 0.344564 -13.8552
lclavicle 9.44227e-016 -3.33958e-014
lhumerus -1.11498 -38.268 94.5892
lradius 84.8685
lwrist 34.3441
lhand 3.18165 53.4015
lfingers 7.12502
lthumb 28.6341 -278.772
rfemur -14.0061 -2.96442 13.122
rtibia 70.6393
rfoot 5.95389 -3.70631
rtoes -4.27599
lfemur -22.5705 3.0254 -24.0669
ltibia 34.6973
lfoot -12.3586 -4.29454
ltoes -18.5779
92
root -8.42609 17.6442 11.5863 -0.755547 1.52821 2.07274
lowerback 1.12554 -0.746114 -2.11412
upperback 0.775806 -1.01626 3.65589
thorax 0.269546 -0.528189 4.96725
lowerneck -18.8187 -0.315812 -7.12065
upperneck 27.5359 1.02844 2.82869
head 12.1603 0.0856913 2.44434
rclavicle 4.72114e-015 -3.18055e-015
rhumerus -11.209 18.9575 -87.1014
rradius 94.5985
rwrist -7.21059
rhand -26.3019 16.5621
rfingers 7.12502
rthumb 0.254129 -13.4175
lclavicle 4.72114e-015 -3.18055e-015
lhumerus -0.749003 -38.5626 94.077
lradius 85.0802
lwrist 34.5256
lhand 3.2998 53.6615
lfingers 7.12502
lthumb 28.747 -278.531
rfemur -14.759 -3.54891 13.0855
rtibia 72.1771
rfoot 4.44358 -5.01202
rtoes -3.4417
lfemur -21.3865 2.30738 -24.243
ltibia 34.2125
lfoot -12.358 -4.31057
ltoes -15.233
93
root -8.3894 17.6513 11.7471 -0.828536 2.1896 2.68986
lowerback 0.270308 -0.901229 -2.821
upperback 1.19584 -1.22483 3.48188
thorax 1.21492 -0.66426 5.17094
lowerneck -19.352 -0.559762 -6.94829
upperneck 27.8283 0.782617 2.45561
head 12.4064 -0.062598 2.24553
rclavicle -1.21259e-014 2.22639e-014
rhumerus -10.5928 19.1689 -86.7526
rradius 94.6247
rwrist -6.98955
rhand -26.4505 16.9513
rfingers 7.12502
rthumb 0.110637 -13.0284
lclavicle -1.21259e-014 2.22639e-014
lhumerus 0.281724 -38.8801 93.0113
lradius 85.2135
lwrist 34.7718
lhand 3.25056 53.8467
lfingers 7.12502
lthumb 28.7 -278.338
rfemur -15.8083 -4.4267 12.4273
rtibia 73.5463
rfoot 3.14238 -5.89371
rtoes -2.98929
lfemur -20.3574 1.51031 -25.028
ltibia 33.7794
lfoot -12.5638 -4.22409
ltoes -11.976
